# xmcd
# Copyright (C) 1995-1998 Ti Kan
#
# Track frame offsets:
#       150
#       20904
#       38904
#       56704
#       74293
#       97673
#       119183
#       138673
#       151888
#       172558
#       191498
#       205353
#       227497
#       247192
#       272377
#       291272
#       320272
#       338324
#
# Disc length: 4719 seconds
#
# Revision: 0
# Processed by: cddbd v1.5.1PL0 Copyright (c) Steve Scherf et al.
# Submitted via: CD-Transfer v1.0
#
DISCID=fe126d12
DTITLE=Various Artist - 
DYEAR=2004
DGENRE=
TTITLE0=Seal    Love's Divine
TTITLE1=Dido   White Flag
TTITLE2=3 Doors Down   Here Without You
TTITLE3=Reamonn   Star
TTITLE4=Simple Minds   Let There Be Love
TTITLE5=Myles Alannah   Black Velvet
TTITLE6=Stewart Dave    Lily Was Here
TTITLE7=Springsteen Bruce   If I Should Fall Behind
TTITLE8=Michael George   Kissing A Fool
TTITLE9=Melua Katie   The Closest Thing To Crazy
TTITLE10=Andrews Michael   Mad World
TTITLE11=Brown Sam   Stop
TTITLE12=Ferry Bryan   Slave To Love
TTITLE13=Keys Alicia   You Don't Know My Name
TTITLE14=Connor Sarah    Just One Last Dance
TTITLE15=Cohen Leonard    A Thousand Kisses Deep
TTITLE16=Sern   Ha nur wlle wüsse
TTITLE17=Dada A.P.   She Cries For Someone Else
EXTD=
EXTT0=
EXTT1=
EXTT2=
EXTT3=
EXTT4=
EXTT5=
EXTT6=
EXTT7=
EXTT8=
EXTT9=
EXTT10=
EXTT11=
EXTT12=
EXTT13=
EXTT14=
EXTT15=
EXTT16=
EXTT17=
PLAYORDER=
